<?xml version="1.0" encoding="utf-8"?>
<!-- Generator: Adobe Illustrator 26.3.1, SVG Export Plug-In . SVG Version: 6.00 Build 0)  -->
<svg version="1.1" id="Ebene_1" xmlns="http://www.w3.org/2000/svg" xmlns:xlink="http://www.w3.org/1999/xlink" x="0px" y="0px"
	 viewBox="0 0 1282.9 121.5" style="enable-background:new 0 0 1282.9 121.5;" xml:space="preserve">
<style type="text/css">
	.st0{fill:#FFFFFF;}
</style>
<g>
	<polygon class="st0" points="391.4,0.3 408.4,119.3 425.6,119.3 408.6,0.3 	"/>
	<polygon class="st0" points="296.1,17.3 318.2,17.3 318.2,119.3 335.2,119.3 335.2,17.3 357.3,17.3 357.3,0.3 296.1,0.3 	"/>
	<rect x="118.4" y="0.3" class="st0" width="17" height="119"/>
	<path class="st0" d="M208.5-2.2c-8.8,0-17.1,1.6-24.6,4.8c-7.6,3.2-14.1,7.5-19.6,13c-5.5,5.5-9.8,12-13,19.6
		c-3.2,7.6-4.8,15.8-4.8,24.6c0,8.8,1.6,17.1,4.8,24.6c3.2,7.6,7.5,14.1,13,19.6c5.5,5.5,12,9.8,19.6,13c7.6,3.2,15.8,4.8,24.6,4.8
		c8.6,0,16.6-1.5,24-4.4c7.4-2.9,13.8-7.1,19.4-12.4V60h-60.3v17h58.8c-3.3,8.4-8.6,15.1-16,20.2c-7.4,5.1-16,7.7-25.8,7.7
		c-6.5,0-12.4-1.1-17.9-3.4c-5.5-2.3-10.3-5.4-14.3-9.4c-4-4-7.2-8.8-9.4-14.3c-2.3-5.5-3.4-11.5-3.4-17.9s1.1-12.4,3.4-17.9
		c2.3-5.5,5.4-10.3,9.4-14.3c4-4,8.8-7.2,14.3-9.4c5.5-2.3,11.5-3.4,17.9-3.4c5.3,0,10.3,0.8,15,2.4c4.7,1.6,8.9,3.8,12.7,6.6
		c3.7,2.8,6.9,6.2,9.6,10.2c2.7,4,4.7,8.3,6,13.1V14.6c-5.6-5.3-12-9.5-19.4-12.4C225.1-0.7,217.1-2.2,208.5-2.2z"/>
	<rect x="267.2" y="0.3" class="st0" width="17" height="119"/>
	<polygon class="st0" points="357.3,119.3 374.4,119.3 391.4,0.3 374.3,0.3 	"/>
	<polygon class="st0" points="454.5,0.3 437.5,0.3 437.5,119.3 498.5,119.3 498.5,102.3 454.5,102.3 	"/>
	<path class="st0" d="M91.9,17.8C86.6,12.4,80.4,8.1,73.4,5c-7.1-3.1-14.8-4.7-23-4.7H0v119h50.3c8.3,0,16-1.5,23-4.5
		c7.1-3,13.3-7.2,18.5-12.5c5.3-5.3,9.4-11.6,12.4-18.8c3-7.2,4.5-15,4.5-23.4c0-8.4-1.5-16.2-4.5-23.5
		C101.3,29.5,97.2,23.1,91.9,17.8z M88.7,77.1c-2.1,5.2-5,9.6-8.7,13.3c-3.7,3.7-8,6.7-13.1,8.8c-5,2.1-10.5,3.1-16.4,3.1H17v-85
		h33.5c5.9,0,11.4,1.1,16.4,3.3c5,2.2,9.4,5.2,13.1,9.1c3.7,3.9,6.6,8.4,8.7,13.6c2.1,5.2,3.1,10.8,3.1,16.8
		C91.8,66.3,90.7,71.9,88.7,77.1z"/>
	<path class="st0" d="M659.7,48.7c2.4-4.5,3.6-9.4,3.6-14.9c0-4.9-0.9-9.4-2.7-13.5c-1.8-4.1-4.3-7.7-7.4-10.7
		c-3.1-3-6.8-5.4-11-7.1c-4.2-1.7-8.8-2.5-13.5-2.5h-69v119h69c4.8,0,9.3-0.8,13.5-2.5s7.9-4.1,11-7.1c3.1-3.1,5.6-6.7,7.4-10.8
		c1.8-4.1,2.7-8.6,2.7-13.5c0-5.4-1.2-10.4-3.6-14.8c-2.4-4.4-5.9-8-10.7-10.7C653.8,56.8,657.3,53.2,659.7,48.7z M641.2,97.2
		c-3.4,3.2-7.5,4.8-12.4,4.8h-52.2V68h52.2c4.9,0,9,1.6,12.4,4.8c3.4,3.2,5.1,7.3,5.1,12.2C646.3,90,644.6,94.1,641.2,97.2z
		 M641.2,46.2c-3.4,3.2-7.5,4.8-12.4,4.8h-52.2V17h52.2c4.9,0,9,1.6,12.4,4.8c3.4,3.2,5.1,7.3,5.1,12.2
		C646.3,39,644.6,43.1,641.2,46.2z"/>
	<path class="st0" d="M1131.1,98.2c-1.8,2.5-4.1,4.6-6.8,6.3c-2.7,1.6-5.8,2.5-9.2,2.5c-4,0-7.3-1.1-9.9-3.4c-2.6-2.3-4.7-5-6.3-8.3
		l27-27c0.3-2.9,0.5-5.8,0.5-8.7c0-8.8-1.6-17.1-4.8-24.6c-3.2-7.6-7.5-14.1-13-19.6c-5.5-5.5-12-9.8-19.6-13
		c-7.6-3.2-15.8-4.8-24.6-4.8c-8.8,0-17.1,1.6-24.6,4.8c-7.6,3.2-14.1,7.5-19.6,13c-5.5,5.5-9.8,12-13,19.6
		c-3.2,7.6-4.8,15.8-4.8,24.6s1.6,17.1,4.8,24.6c3.2,7.6,7.5,14.1,13,19.6c5.5,5.5,12,9.8,19.6,13c7.6,3.2,15.8,4.8,24.6,4.8
		c1.5,0,2.9-0.1,4.2-0.2c1.4-0.1,2.8-0.2,4.2-0.3l22.1-22.1c0.3,0.5,0.6,0.9,0.7,1.4c1.2,2.8,2.7,5.6,4.3,8.2c1.6,2.7,3.5,5,5.6,7.1
		c2.1,2,4.5,3.7,7.3,4.8c2.8,1.2,5.9,1.8,9.3,1.8c2.6,0,5.2-0.4,7.6-1.2c2.5-0.8,4.8-2,6.8-3.7V80.4c0,3.1-0.5,6.1-1.4,9.3
		C1134.3,92.8,1132.9,95.6,1131.1,98.2z M1079.6,102.2c-5,1.6-10,2.4-15.1,2.4c-4,0-7.4-1-10.3-3.1c-2.9-2.1-4.3-5.3-4.3-9.6
		c0-4.8,1.8-8.5,5.4-11.2c3.6-2.7,7.6-4.1,12.2-4.1c6,0,11.1,1.8,15.4,5.4c4.2,3.6,7.7,7.9,10.3,12.9
		C1089.1,98.1,1084.6,100.6,1079.6,102.2z M1084.7,77.1c-5.1-3.8-11-5.7-17.7-5.7c-2.8,0-5.6,0.5-8.2,1.4c-2.6,0.9-4.9,2.2-6.9,3.9
		c-2,1.7-3.6,3.8-4.8,6.2c-1.2,2.4-1.8,5.2-1.8,8.2c0,4.3,1.4,8,4.1,11c-9.4-3.2-16.8-8.6-22.1-16.3c-5.3-7.7-8-16.5-8-26.3
		c0-6.5,1.1-12.4,3.4-17.9c2.3-5.5,5.4-10.3,9.4-14.3c4-4,8.8-7.2,14.3-9.4c5.5-2.3,11.5-3.4,17.9-3.4c6.5,0,12.4,1.1,17.9,3.4
		c5.5,2.3,10.3,5.4,14.3,9.4c4,4,7.2,8.8,9.4,14.3c2.3,5.5,3.4,11.5,3.4,17.9c0,5.9-1,11.6-3.1,17.1c-2.1,5.5-5.2,10.4-9.4,14.7
		C1093.9,85.6,1089.8,80.9,1084.7,77.1z"/>
	<path class="st0" d="M1192.8,87c0,5.1-1.6,9.3-4.8,12.6c-3.2,3.3-7.3,4.9-12.2,4.9c-4.9,0-8.9-1.6-12.2-4.9
		c-3.2-3.3-4.8-7.5-4.8-12.6V0h-17v86.9c0,4.9,0.9,9.4,2.6,13.7c1.8,4.2,4.2,7.9,7.2,11c3.1,3.1,6.7,5.6,10.9,7.3
		c4.2,1.8,8.7,2.6,13.4,2.6c4.8,0,9.2-0.9,13.3-2.6c4.1-1.8,7.7-4.2,10.7-7.3c3-3.1,5.4-6.8,7.1-11c1.8-4.2,2.6-8.8,2.6-13.7V0h-17
		V87z"/>
	<polygon class="st0" points="1282.8,17 1282.8,0 1221.7,0 1221.7,119 1282.8,119 1282.8,102 1238.7,102 1238.7,68 1282.8,68 
		1282.8,51 1238.7,51 1238.7,17 	"/>
	<path class="st0" d="M849.2,83.9c-4-5.3-8.6-9.9-13.9-13.8c-5.2-3.9-11.5-6.7-18.9-8.4v-0.5c5.9,1.2,11.6,1.9,17,1.9
		c9.7,0,17.6-2.2,23.6-6.6c6-4.4,9-11.9,9-22.4c0-4.9-0.9-9.4-2.7-13.5c-1.8-4.1-4.3-7.7-7.4-10.8c-3.1-3.1-6.8-5.4-11-7.1
		c-4.2-1.7-8.8-2.5-13.5-2.5h-66.1v119h17V68h38.4l29.6,51h19.5c-3.4-6-6.7-12-9.9-18.1C856.8,94.8,853.2,89.2,849.2,83.9z
		 M782.3,17h49.1c4.9,0,9,1.6,12.5,4.8c3.5,3.2,5.2,7.3,5.2,12.2c0,5-1.7,9.1-5.2,12.2c-3.5,3.2-7.6,4.8-12.5,4.8h-49.1V17z"/>
	<path class="st0" d="M693.9,0c0.9,1.6,1.8,3.7,2.5,6.3c0.8,2.6,1.5,5.4,2,8.2c0.6,2.9,1,5.7,1.4,8.4c0.3,2.7,0.5,5,0.5,6.8
		c0,5.8-0.8,10.9-2.5,15.5c-1.7,4.5-3.8,8.7-6.4,12.5c-2.5,3.8-5.3,7.3-8.3,10.6c-3,3.3-5.8,6.6-8.3,10c-2.5,3.4-4.7,7-6.4,10.9
		c-1.7,3.9-2.5,8.2-2.5,12.9c0,2.9,0.4,5.9,1.2,8.8c0.8,2.9,2.1,5.6,3.9,8.1h26.7c5.7,0,10.2-1.5,13.7-4.6c3.5-3.1,6.1-6.8,7.9-11.3
		c1.8-4.5,2.9-9.3,3.4-14.5c0.5-5.2,0.5-10,0.2-14.3l17.5,44.7h18.2L712.1,0H693.9z M717.3,66.2c0.8,4.6,1.3,9.4,1.3,14.5
		c0,3.3-0.3,6.9-0.8,10.7c-0.6,3.9-1.6,7.5-3.2,10.8c-1.6,3.3-3.7,6.1-6.4,8.3c-2.7,2.2-6.1,3.3-10.5,3.3c-4.8,0-8.4-1.4-11-4.3
		c-2.5-2.9-3.8-6.7-3.8-11.3c0-5.3,1.2-10.5,3.7-15.6c2.4-5.1,5-10.5,7.8-16.1c2.8-5.6,5.2-11.7,7.4-18.2c2.2-6.5,2.9-13.9,2.4-22.2
		c1.8,4.5,3.6,9,5.3,13.3c1.7,4.4,3.2,8.8,4.6,13.2S716.4,61.6,717.3,66.2z"/>
	<path class="st0" d="M976.2,15.2c-5.5-5.5-12-9.8-19.6-13c-7.6-3.2-15.8-4.8-24.6-4.8c-8.8,0-17.1,1.6-24.6,4.8
		c-7.6,3.2-14.1,7.5-19.6,13c-5.5,5.5-9.8,12-13,19.6c-3.2,7.6-4.8,15.8-4.8,24.6s1.6,17.1,4.8,24.6c3.2,7.6,7.5,14.1,13,19.6
		c5.5,5.5,12,9.8,19.6,13c7.6,3.2,15.8,4.8,24.6,4.8c8.8,0,17.1-1.6,24.6-4.8c7.6-3.2,14.1-7.5,19.6-13c5.5-5.5,9.8-12,13-19.6
		c3.2-7.6,4.8-15.8,4.8-24.6s-1.6-17.1-4.8-24.6C986,27.3,981.7,20.7,976.2,15.2z M973.5,77.4c-2.3,5.5-5.4,10.3-9.4,14.3
		c-4,4-8.8,7.2-14.3,9.4c-5.5,2.3-11.5,3.4-17.9,3.4s-12.4-1.1-17.9-3.4c-5.5-2.3-10.3-5.4-14.3-9.4c-4-4-7.2-8.8-9.4-14.3
		c-2.3-5.5-3.4-11.5-3.4-17.9c0-6.5,1.1-12.4,3.4-17.9c2.3-5.5,5.4-10.3,9.4-14.3c4-4,8.8-7.2,14.3-9.4c5.5-2.3,11.5-3.4,17.9-3.4
		s12.4,1.1,17.9,3.4c5.5,2.3,10.3,5.4,14.3,9.4c4,4,7.2,8.8,9.4,14.3c2.3,5.5,3.4,11.5,3.4,17.9C976.9,66,975.8,71.9,973.5,77.4z"/>
</g>
</svg>
