<svg xmlns="http://www.w3.org/2000/svg" xml:space="preserve" id="Ebene_1" x="0" y="0" version="1.1" viewBox="0 0 250 70">
  <style>
    .st0{fill-rule:evenodd;clip-rule:evenodd;fill:#fff}
  </style>
  <g id="Page-1">
    <g id="overview" transform="translate(-200 -91)">
      <g id="Group-35" transform="translate(200 91)">
        <path id="Fill-29" d="M84.7 51.9H86V36.6l2.2-.9V35h-6.1v.7l2.1.9v9.7l-9-11.3H70v.7l2.2.9v13.5l-2.2.8v.7h6.1v-.7l-2.1-.8V38.6l10.7 13.3zm4.7-1v.7h7.8v-.7l-2.2-.8V39.2l-5.6.9v.7l2.3.6v8.7l-2.3.8zm3.9-13.8c1.4 0 1.9-.4 1.9-1.4 0-.9-.6-1.3-2.1-1.3-1.3 0-1.9.4-1.9 1.4.1.9.6 1.3 2.1 1.3zm16.4 4.4c-.8-1.4-2.3-2.1-4.6-2.1-3.6 0-6.3 2.8-6.3 6.6 0 3.7 2.4 6 6.2 6 1.3 0 3.1-.4 5.3-1.1l-.2-.9c-1.2.2-2.2.4-3 .4-3.1 0-4.9-1.8-4.9-5h8.3c0-2.1-.2-2.9-.8-3.9zm-7.4 2.9c0-2.7.9-4.1 2.6-4.1 1.5 0 2.2 1 2.2 3.7l-4.8.4zM125 34l-5.7 1v.7l2.4.6v3.4c-.8-.2-1.4-.3-2.1-.3-4 0-7 2.9-7 6.8 0 3.2 2.1 5.8 4.8 5.8 1 0 2-.3 4.1-1.4l.2-.1V52l5.4-1v-.7l-2.1-.6V34zm-3.3 15.8c-.6.2-1.1.2-1.7.2-2.5 0-4-1.8-4-4.6 0-3 1.8-5 4.4-5 .5 0 .7 0 1.3.2v9.2zm17.7-8.3c-.8-1.4-2.3-2.1-4.6-2.1-3.6 0-6.3 2.8-6.3 6.6 0 3.7 2.4 6 6.2 6 1.3 0 3.1-.4 5.3-1.1l-.2-.9c-1.2.2-2.2.4-3 .4-3.1 0-4.9-1.8-4.9-5h8.3c0-2.1-.2-2.9-.8-3.9zm-7.5 2.9c0-2.7.9-4.1 2.6-4.1 1.5 0 2.2 1 2.2 3.7l-4.8.4zm17.1-3.3h.6l.7 1.6h2.7v-3c-.6-.3-1.1-.4-1.7-.4-.8 0-1.7.3-3.8 1.4l-.3.2v-1.5l-5.4.9v.7l2.3.6v8.7l-2.3.9v.7h8.2v-.7l-2.8-.9v-8.7c.7-.4 1.4-.5 1.8-.5zm6.4 10.2 1.2.2c1.2.2 2 .3 2.6.3 2.7 0 4.6-1.5 4.6-3.8 0-1.4-.7-2.5-2.2-3.2l-2.3-1.2c-1.2-.6-1.5-.9-1.5-1.7 0-1 .8-1.5 2.3-1.5h.3l1.2 2.1h1.8v-2.7l-.3-.1-1.1-.2c-.3-.1-.7-.1-1.2-.2-.6-.1-1.2-.1-1.6-.1-2.5 0-4.3 1.5-4.3 3.4 0 1.3.6 2.2 2.3 3.1l2.2 1.2c1.4.7 1.6 1 1.6 1.8 0 1.1-.9 1.7-2.5 1.7h-.6l-1.3-2.3H155V51l.4.3zm15.9-10.9h.6c1.4 0 1.8.5 1.8 1.9v2.9c-2.2.2-3.6.4-4.8.6-1.7.4-2.5 1.4-2.5 2.9 0 1.8 1.5 3.1 3.5 3.1 1 0 2.4-.5 3.9-1.3.3 1 .7 1.3 1.6 1.3.4 0 .7 0 1.1-.2.2 0 .6-.1 1.2-.3l1.2-.3.3-.1v-.7l-1.4-.3c-.6-.1-.9-.3-.9-.6v-6.9c0-1.4-.3-1.9-1.3-2.5-.7-.4-1.6-.5-2.8-.5-1.3 0-3 .3-5.3 1v2.4h2.4l1.2-2.3c.1-.1.2-.1.2-.1zm2.5 9.5c-.6.2-1.2.3-1.8.3-1.4 0-2.2-.7-2.2-1.9 0-1.1.5-1.6 2.4-1.9l1.2-.2h.3v3.7zm13.4-10.6c-4.4 0-7.3 2.6-7.3 6.6 0 3.5 2.5 5.9 6.1 5.9 1.3 0 2.8-.3 5.1-.9l-.2-1-.3.1c-1 .2-1.6.2-2.3.2-3.2 0-5-1.8-5-5 0-2.8 1.7-4.9 4-4.9h.2l1.2 2.3h2.2v-2.8c-1.4-.3-2.5-.5-3.7-.5zm12.7 1.8c1.9 0 2.7.9 2.7 3.1v5.9l-1.9.9v.7h7.3V51l-2.3-.9v-6.6c0-1.5-.2-2.3-.9-3.1-.6-.6-1.5-1-2.4-1-.9 0-2.3.4-4.4 1.1l-.3.1V34l-5.6 1v.7l2.4.6v13.8l-2.2.9v.7h7.4V51l-2-.9v-8.7c.6-.2 1.5-.3 2.2-.3zm10.4 10.2 1.2.2c1.2.2 2 .3 2.6.3 2.7 0 4.6-1.5 4.6-3.8 0-1.4-.7-2.5-2.2-3.2l-2.3-1.2c-1.2-.6-1.5-.9-1.5-1.7 0-1 .8-1.5 2.3-1.5h.3l1.2 2.1h1.8v-2.7l-.3-.1-1.1-.2c-.3-.1-.7-.1-1.2-.2-.6-.1-1.2-.1-1.6-.1-2.5 0-4.3 1.5-4.3 3.4 0 1.3.6 2.2 2.3 3.1l2.2 1.2c1.4.7 1.6 1 1.6 1.8 0 1.1-.9 1.7-2.5 1.7h-.6l-1.3-2.3h-1.8V51l.6.3zm21.7-9.8c-.8-1.4-2.3-2.1-4.6-2.1-3.6 0-6.3 2.8-6.3 6.6 0 3.7 2.4 6 6.2 6 1.3 0 3.1-.4 5.3-1.1l-.2-.9c-1.2.2-2.2.4-3 .4-3.1 0-4.9-1.8-4.9-5h8.3c0-2.1-.1-2.9-.8-3.9zm-7.4 2.9c0-2.7.9-4.1 2.6-4.1 1.5 0 2.2 1 2.2 3.7l-4.8.4zm17.3-3.2c2 0 2.7.7 2.7 3.1v5.8l-1.7.9v.7h7.1V51l-2.2-.9v-6.5c0-1.7-.2-2.3-.9-3.1-.6-.7-1.4-1-2.5-1-.6 0-1.1.1-1.5.2-.2 0-.7.2-1.5.5l-1.3.4-.3.1v-1.4l-5.4.9v.7l2.3.6v8.7l-2.3.9v.7h7.4v-.7l-2-.9v-8.7c.9-.2 1.3-.3 2.1-.3z" class="st0"/>
        <path id="Fill-31" d="M75.4 25.7c3.5 0 5.9-1.9 5.9-4.6 0-.9-.3-1.9-.8-2.6-.5-.6-.8-.9-2.3-1.8l-2.9-1.8c-1.8-1.1-2.1-1.5-2.1-2.5 0-1.5 1.2-2.3 3.8-2.3.8 0 1 0 1.5.2l1.3 3.3h1.1v-4l-.4-.1-1.5-.4c-1.4-.3-2-.4-2.9-.4-3.6 0-6 1.8-6 4.4 0 1.7.9 3 2.9 4.2l3 1.8c1.7 1 2.1 1.5 2.1 2.6 0 1.7-1.2 2.5-3.9 2.5-.8 0-1 0-1.6-.1l-1.4-3.5H70v4.1c2.1.6 4.4 1 5.4 1zm9.6-2.9c0 2 1 3 3.1 3 .8 0 1.9-.1 2.8-.3l1.4-.3.3-.1-.2-1h-.2l-.7.1h-.8c-1.8 0-2.4-.5-2.4-2.2v-7.4h4.1v-1.2h-4.1v-3.1h-1c-.2.5-.4.8-.8 1.3-.8 1.3-1 1.4-3.2 2.1l-.3.1v.8h2v8.2zm9.5 2.1v.7h7.8v-.7l-2.2-.9V13.2l-5.5.9v.7l2.3.6V24l-2.4.9zm3.9-13.8c1.4 0 1.9-.4 1.9-1.4 0-.9-.6-1.3-2-1.3-1.3 0-1.9.4-1.9 1.4 0 .9.5 1.3 2 1.3zm20 3.6v-1.2h-8.7V12c0-2 .9-2.9 2.9-2.9l1 1.6h2V8.4c-1-.3-2.1-.4-3.2-.4-3.7 0-6 1.9-6 4.9v.5h-2v1.2h2V24l-2.3.9v.7h8.3v-.7l-2.8-.9v-9.3h8.8zm-1.7 8.1c0 2 1 3 3.1 3 .8 0 1.9-.1 2.8-.3l1.4-.3.3-.1-.2-1h-.2l-.7.1h-.8c-1.8 0-2.4-.5-2.4-2.2v-7.4h4.1v-1.2H120v-3.1h-1c-.2.5-.4.8-.8 1.3-.5.7-.7 1-1.2 1.3-.1.1-.2.1-.4.2-.8.3-1.8.2-1.8.2v1.2h2v8.3zm24.2 2.2v-.7l-2.2-.6V13.2l-5.4.9v.7l2.2.6v8.4h-.2c-.8.1-1.1.2-1.9.2-2.1 0-2.7-.7-2.7-3.1v-7.7l-5.5.9v.7l2.3.6v6.3c0 1.7.2 2.4.8 3.2.6.6 1.5 1 2.5 1 .9 0 1.9-.3 4.4-1.2l.2-.1V26l5.5-1zm8.9-9.8c2 0 2.6.7 2.6 3.1V24l-1.7.9v.7h7.1v-.7l-2.2-.9v-6.5c0-1.7-.2-2.3-.9-3.1-.6-.7-1.4-1-2.5-1-.6 0-1.1.1-1.5.2-.2 0-.7.2-1.5.5l-1.3.4-.3.1v-1.4l-5.4.9v.7l2.3.6V24l-2.3.9v.7h7.4v-.7l-2-.9v-8.6c1-.2 1.4-.2 2.2-.2zm17.6-1.1c-.9-.5-1.9-.8-3.2-.8-3 0-5.3 1.8-5.3 4.1 0 1.9 1.5 3.4 3.8 3.7-1.9 1.3-2.6 2.1-2.6 2.8 0 .5.3.9 1.1 1.4l-.3.1c-1.9.8-2.9 1.6-2.9 2.5 0 1.7 2.2 3 5.5 3 4.3 0 7.8-2.1 7.8-5 0-1.8-1.2-2.7-3.7-2.7h-3.2c-1.1 0-1.6-.2-1.6-.7 0-.3.1-.5.5-1.1l.2-.2h1c3.1 0 5.3-1.6 5.3-3.7 0-1.1-.6-2-1.7-2.9l3.8.9V13l-4.5 1.1zm-5.3 2.8c0-1.7.8-2.7 2.2-2.7 1.4 0 2.3 1.4 2.3 3.6 0 1.8-.7 2.7-2.1 2.7-1.5 0-2.3-1.2-2.4-3.5v-.1zm1.2 9.2h3.2c1.6 0 2.1.2 2.1 1.2 0 1.5-2.3 2.6-4.8 2.6-2 0-3.2-.9-3.2-2.2 0-.5.3-1.1 1.1-1.7l.2-.2c.2.2.6.3 1.4.3z" class="st0"/>
        <path id="Fill-33" d="M41.5 24.4c-1.9-3-6-1.6-6 1.3 0 2-1.1 2-1.5 2.1-.2 0-.9 0-1.5-.4-1.4-1-2.8-2.2-6.4-1.7-1.8.1-4.2-1.3-4.6-1.5-.4-.2-.3-.4-.1-1 2.4-6.1 0-11.2-4.1-12.8-.1 0-.3-.2-.5-.3-.2-.1-.4-1-.4-1.4v-.5c-.1-.1-.3-.2-.4-.2-.4.1-.6.4-.7.6s-.1.3-.2.4c0 0 0 .1-.1.1h-.3v-.5c0-.1-.1-.3-.2-.3-.2 0-.3 0-.5.2-.1.1-.5.5-.6.7s-.2.4-.2.5c-.1 0-.1.1-.1.1-1 .7-4.5 3.1-4.6 3.2-.1 0-.7.4-.9.6-.5.4-.6 2.1-.6 2.6 0 .3.2.4.3.5.4.2.8.2 1.2.2 0 0 .1 0 .1.1-.1.5.4.7.7.7.3 0 .5-.1.7-.1.4 0 .6-.1.8-.4.1-.2.3-.6 1.1-.6 1-.1 1.3-.4 1.5-.4.5.2.8.9-.2 2.2 0 .1-.4.8-1.1 1.9-1 1.5-1.6 2.2-2.1 3.1-.4.6-.5 1.3-.6 1.4 0 0-.1.2-.2.1-.3-.2-2.5-1.4-2.8-1.6-.4-.2-1-.3-1.6-.1-.4.1-.7.4-1.2.9-.7.8-2.5 2.9-2.9 3.2-.4.5-.7.8-.7 1.4 0 0 .1.5.1.9v1.7c.1.3.6.7.6.7s1.2 1 1.4 1c.2 0 .3 0 .4-.2.2-.2.6-1.9.7-2.4 0-.2.1-.7-.2-.9-.2 0-.8-.5-1-.7-.3-.2.3-.8.5-.7s.8.2 1-.1c.1-.2 1-2 1.2-2.2.4-.5 1.2-.5 1.6-.1.4.5.6.8.8 1.1.3.4.9 1 1.2 1.2v.1s-2.2-.6-2.6-.7c-.7-.2-1 .1-1.2.4-.2.2-.6.7-.8.9-.3.5-.2.8-.2 1 .1 1.2.3 2.6.3 3.1-.1.6-.1.8-.3 1.6-.2 1 .2 1.9 1 3.3.1.2.4.6.5.7.4.6.6.6.8.7.4.2 1.7.5 1.6-.2 0 0-.1-.9-.2-2s-.5-1.2-.7-1.3c-.3 0-.5 0-.8-.1-.4-.1-.5-.8-.3-1 .2-.2.6-.1.8-.4.2-.4-.6-1.5-.7-2.2-.1-.9-.1-1 0-1.6.1-.4.7-.5 1.1-.3.8.5 1.3 1.2 2.2 1.6.7.3 3.9 1.2 6.2 2 1.3.5 1.9.9 4 1.4 3.2.6 5.1-.1 5.8.5 2.7 2.1 3.8 2.3 4.5 2.3.5 0 1.6-.1 2.5 1.7.3.6 1 2.8 1.2 3.9.1.5-.1 1-.5 1.6-.2.4-.5.6-.7.9l-.5.5c-.1.2-.2.4-.4.7-.4.6-.7 1.1-.9 1.9 0 .1 0 .4.6.4 1 .1 4.7-.7 3.8-2.4-.2-.3-.2-.4-.1-.7.1-.4.6-.9.8-1.2.2-.3.6-.6.4-2.5-.3-.5-.2-.6-.5-1.6 0-.1-.1-.2-.1-.3.1-.3.4 0 .7.3.5.5 1.1 1.7 2 4.5.1.6-.2 1.7-.4 2.1-.1.2-.6.9-1 1.3-.2.2-.4.3-.5.5-.1.1-.2.4-.3.5-.2.3-.3.5-.5 1.1-.3.6-.3.9.2 1 2.6.2 3.5-.7 3.6-.9.5-.4.2-1 .2-1.2-.1-.4-.2-.6 0-.9 1.4-1.4 1.4-1.4 1.5-2.1 0-.8.1-1.1-.2-1.9-.3-1.1-.7-2.1-.9-3.1-.1-.4.1-.7-.3-1.4-1.5-2-4.2-3.4-3.9-4.4.3-3.8-.3-5.6-.6-6.3-.1-.2-.3-.4-.1-.4h.5c1.3-.2 1.2-1.1 2.2-1.3 2.5-.5-1 3.2 2.7 6.2 1.5 1.2 3.4.8 4.3 0l.1-.1v-.1c-5.2-3.1-.6-5-2.7-9.7" class="st0"/>
        <path id="Fill-28" d="M56 70h.9V0H56z" class="st0"/>
      </g>
    </g>
  </g>
</svg>
