<svg xmlns="http://www.w3.org/2000/svg" xml:space="preserve" viewBox="0 0 723.4 274.8">
  <path fill="#fff" d="m425.7 120.6-17-119h-17.2l17 119zm-107.4 0h17v-102h22.1v-17h-61.2v17h22.1zM118.5 1.6h17v119h-17zm-18.3 198.7c2.4-4.5 3.6-9.4 3.6-14.9 0-4.9-.9-9.4-2.7-13.5-1.8-4.1-4.3-7.7-7.4-10.7-3.1-3-6.8-5.4-11-7.1-4.2-1.7-8.8-2.5-13.5-2.5H.2v119h69c4.8 0 9.3-.8 13.5-2.5s7.9-4.1 11-7.1c3.1-3.1 5.6-6.7 7.4-10.8 1.8-4.1 2.7-8.6 2.7-13.5 0-5.4-1.2-10.4-3.6-14.8-2.4-4.4-5.9-8-10.7-10.7 4.8-2.8 8.3-6.4 10.7-10.9zm-18.5 48.6c-3.4 3.2-7.5 4.8-12.4 4.8H17.1v-34h52.2c4.9 0 9 1.6 12.4 4.8 3.4 3.2 5.1 7.3 5.1 12.2 0 4.9-1.7 9-5.1 12.2zm0-51c-3.4 3.2-7.5 4.8-12.4 4.8H17.1v-34h52.2c4.9 0 9 1.6 12.4 4.8 3.4 3.2 5.1 7.3 5.1 12.2 0 4.9-1.7 9-5.1 12.2zm82.6-92.5c5.5 5.5 12 9.8 19.6 13 7.6 3.2 15.8 4.8 24.6 4.8 8.6 0 16.6-1.5 24-4.4 7.4-2.9 13.8-7.1 19.4-12.4v-45h-60.3v17h58.8c-3.3 8.4-8.6 15.1-16 20.2s-16 7.7-25.8 7.7c-6.5 0-12.4-1.1-17.9-3.4-5.5-2.3-10.3-5.4-14.3-9.4s-7.2-8.8-9.4-14.3c-2.3-5.5-3.4-11.5-3.4-17.9s1.1-12.4 3.4-17.9c2.3-5.5 5.4-10.3 9.4-14.3s8.8-7.2 14.3-9.4c5.5-2.3 11.5-3.4 17.9-3.4 5.3 0 10.3.8 15 2.4 4.7 1.6 8.9 3.8 12.7 6.6 3.7 2.8 6.9 6.2 9.6 10.2 2.7 4 4.7 8.3 6 13.1V15.9c-5.6-5.3-12-9.5-19.4-12.4-7.4-2.9-15.4-4.4-24-4.4-8.8 0-17.1 1.6-24.6 4.8-7.6 3.2-14.1 7.5-19.6 13-5.5 5.5-9.8 12-13 19.6-3.2 7.6-4.8 15.8-4.8 24.6s1.6 17.1 4.8 24.6c3.2 7.7 7.5 14.2 13 19.7zm103-103.8h17v119h-17zm124.2 0h-17.1l-17 119h17.1zm180.1 248.2c-1.8 2.5-4.1 4.6-6.8 6.3-2.7 1.6-5.8 2.5-9.2 2.5-4 0-7.3-1.1-9.9-3.4-2.6-2.3-4.7-5-6.3-8.3l27-27c.3-2.9.5-5.8.5-8.7 0-8.8-1.6-17.1-4.8-24.6-3.2-7.6-7.5-14.1-13-19.6-5.5-5.5-12-9.8-19.6-13-7.6-3.2-15.8-4.8-24.6-4.8s-17.1 1.6-24.6 4.8c-7.6 3.2-14.1 7.5-19.6 13-5.5 5.5-9.8 12-13 19.6-3.2 7.6-4.8 15.8-4.8 24.6s1.6 17.1 4.8 24.6c3.2 7.6 7.5 14.1 13 19.6 5.5 5.5 12 9.8 19.6 13 7.6 3.2 15.8 4.8 24.6 4.8 1.5 0 2.9-.1 4.2-.2l4.2-.3 22.1-22.1c.3.5.6.9.7 1.4 1.2 2.8 2.7 5.6 4.3 8.2 1.6 2.7 3.5 5 5.6 7.1 2.1 2 4.5 3.7 7.3 4.8 2.8 1.2 5.9 1.8 9.3 1.8 2.6 0 5.2-.4 7.6-1.2 2.5-.8 4.8-2 6.8-3.7v-37c0 3.1-.5 6.1-1.4 9.3-.8 3.1-2.2 5.9-4 8.5zm-51.5 4c-5 1.6-10 2.4-15.1 2.4-4 0-7.4-1-10.3-3.1-2.9-2.1-4.3-5.3-4.3-9.6 0-4.8 1.8-8.5 5.4-11.2 3.6-2.7 7.6-4.1 12.2-4.1 6 0 11.1 1.8 15.4 5.4 4.2 3.6 7.7 7.9 10.3 12.9-4.1 3.3-8.6 5.7-13.6 7.3zm5.1-25.1c-5.1-3.8-11-5.7-17.7-5.7-2.8 0-5.6.5-8.2 1.4-2.6.9-4.9 2.2-6.9 3.9-2 1.7-3.6 3.8-4.8 6.2-1.2 2.4-1.8 5.2-1.8 8.2 0 4.3 1.4 8 4.1 11-9.4-3.2-16.8-8.6-22.1-16.3-5.3-7.7-8-16.5-8-26.3 0-6.5 1.1-12.4 3.4-17.9 2.3-5.5 5.4-10.3 9.4-14.3s8.8-7.2 14.3-9.4c5.5-2.3 11.5-3.4 17.9-3.4 6.5 0 12.4 1.1 17.9 3.4 5.5 2.3 10.3 5.4 14.3 9.4s7.2 8.8 9.4 14.3c2.3 5.5 3.4 11.5 3.4 17.9 0 5.9-1 11.6-3.1 17.1-2.1 5.5-5.2 10.4-9.4 14.7-2.9-5.7-7-10.4-12.1-14.2zm108.1 10c0 5.1-1.6 9.3-4.8 12.6-3.2 3.3-7.3 4.9-12.2 4.9-4.9 0-8.9-1.6-12.2-4.9-3.2-3.3-4.8-7.5-4.8-12.6v-87h-17v86.9c0 4.9.9 9.4 2.6 13.7 1.8 4.2 4.2 7.9 7.2 11 3.1 3.1 6.7 5.6 10.9 7.3 4.2 1.8 8.7 2.6 13.4 2.6 4.8 0 9.2-.9 13.3-2.6 4.1-1.8 7.7-4.2 10.7-7.3 3-3.1 5.4-6.8 7.1-11 1.8-4.2 2.6-8.8 2.6-13.7v-86.9h-17v87zm90-70.1v-17h-61.1v119h61.1v-17h-44.1v-34h44.1v-17h-44.1v-34zm-224.7-65h-44V1.6h-17v119h61zM289.7 235.5c-4-5.3-8.6-9.9-13.9-13.8-5.2-3.9-11.5-6.7-18.9-8.4v-.5c5.9 1.2 11.6 1.9 17 1.9 9.7 0 17.6-2.2 23.6-6.6 6-4.4 9-11.9 9-22.4 0-4.9-.9-9.4-2.7-13.5-1.8-4.1-4.3-7.7-7.4-10.8-3.1-3.1-6.8-5.4-11-7.1-4.2-1.7-8.8-2.5-13.5-2.5h-66.1v119h17v-51h38.4l29.6 51h19.5c-3.4-6-6.7-12-9.9-18.1-3.1-6.2-6.7-11.9-10.7-17.2zm-66.9-66.9h49.1c4.9 0 9 1.6 12.5 4.8 3.5 3.2 5.2 7.3 5.2 12.2 0 5-1.7 9.1-5.2 12.2-3.5 3.2-7.6 4.8-12.5 4.8h-49.1v-34zm-88.4-17c.9 1.6 1.8 3.7 2.5 6.3.8 2.6 1.5 5.4 2 8.2.6 2.9 1 5.7 1.4 8.4.3 2.7.5 5 .5 6.8 0 5.8-.8 10.9-2.5 15.5-1.7 4.5-3.8 8.7-6.4 12.5-2.5 3.8-5.3 7.3-8.3 10.6-3 3.3-5.8 6.6-8.3 10-2.5 3.4-4.7 7-6.4 10.9-1.7 3.9-2.5 8.2-2.5 12.9 0 2.9.4 5.9 1.2 8.8.8 2.9 2.1 5.6 3.9 8.1h26.7c5.7 0 10.2-1.5 13.7-4.6 3.5-3.1 6.1-6.8 7.9-11.3 1.8-4.5 2.9-9.3 3.4-14.5.5-5.2.5-10 .2-14.3l17.5 44.7H199l-46.4-119h-18.2zm23.4 66.2c.8 4.6 1.3 9.4 1.3 14.5 0 3.3-.3 6.9-.8 10.7-.6 3.9-1.6 7.5-3.2 10.8-1.6 3.3-3.7 6.1-6.4 8.3-2.7 2.2-6.1 3.3-10.5 3.3-4.8 0-8.4-1.4-11-4.3-2.5-2.9-3.8-6.7-3.8-11.3 0-5.3 1.2-10.5 3.7-15.6 2.4-5.1 5-10.5 7.8-16.1 2.8-5.6 5.2-11.7 7.4-18.2s2.9-13.9 2.4-22.2c1.8 4.5 3.6 9 5.3 13.3 1.7 4.4 3.2 8.8 4.6 13.2s2.3 9 3.2 13.6zM104.4 38c-3-7.3-7.1-13.6-12.4-19-5.3-5.4-11.4-9.6-18.5-12.7-7.1-3.1-14.8-4.7-23-4.7H.1v119h50.3c8.3 0 16-1.5 23-4.5 7.1-3 13.3-7.2 18.5-12.5 5.3-5.3 9.4-11.6 12.4-18.8 3-7.2 4.5-15 4.5-23.4.1-8.3-1.4-16.1-4.4-23.4zM88.8 78.4c-2.1 5.2-5 9.6-8.7 13.3-3.7 3.7-8 6.7-13.1 8.8-5 2.1-10.5 3.1-16.4 3.1H17.1v-85h33.5c5.9 0 11.4 1.1 16.4 3.3 5 2.2 9.4 5.2 13.1 9.1 3.7 3.9 6.6 8.4 8.7 13.6 2.1 5.2 3.1 10.8 3.1 16.8 0 6.2-1.1 11.8-3.1 17zm327.9 88.4c-5.5-5.5-12-9.8-19.6-13-7.6-3.2-15.8-4.8-24.6-4.8s-17.1 1.6-24.6 4.8c-7.6 3.2-14.1 7.5-19.6 13-5.5 5.5-9.8 12-13 19.6-3.2 7.6-4.8 15.8-4.8 24.6s1.6 17.1 4.8 24.6c3.2 7.6 7.5 14.1 13 19.6 5.5 5.5 12 9.8 19.6 13 7.6 3.2 15.8 4.8 24.6 4.8s17.1-1.6 24.6-4.8c7.6-3.2 14.1-7.5 19.6-13 5.5-5.5 9.8-12 13-19.6 3.2-7.6 4.8-15.8 4.8-24.6s-1.6-17.1-4.8-24.6c-3.2-7.5-7.5-14.1-13-19.6zm-2.7 62.3c-2.3 5.5-5.4 10.3-9.4 14.3s-8.8 7.2-14.3 9.4c-5.5 2.3-11.5 3.4-17.9 3.4s-12.4-1.1-17.9-3.4c-5.5-2.3-10.3-5.4-14.3-9.4s-7.2-8.8-9.4-14.3c-2.3-5.5-3.4-11.5-3.4-17.9 0-6.5 1.1-12.4 3.4-17.9 2.3-5.5 5.4-10.3 9.4-14.3s8.8-7.2 14.3-9.4c5.5-2.3 11.5-3.4 17.9-3.4s12.4 1.1 17.9 3.4c5.5 2.3 10.3 5.4 14.3 9.4s7.2 8.8 9.4 14.3c2.3 5.5 3.4 11.5 3.4 17.9 0 6.4-1.1 12.4-3.4 17.9z"/>
</svg>
