<svg xmlns="http://www.w3.org/2000/svg" xml:space="preserve" id="svg2403" x="0" y="0" version="1.1" viewBox="0 0 200 50">
  <style>
    .st0{fill-rule:evenodd;clip-rule:evenodd;fill:#fff}
  </style>
  <g id="g2412" transform="matrix(1.25 0 0 -1.25 -89.121 989.48)">
    <path id="path2414" d="M78.6 768.4c0 1.3-1 2.3-2.2 2.3-1.3 0-2.3-1-2.3-2.3 0-1.2 1-2.2 2.3-2.2 1.3 0 2.2 1 2.2 2.2" class="st0"/>
    <path id="path2416" d="M105.3 787.6c0 .6-.5 1.2-1.1 1.2-.7 0-1.2-.6-1.2-1.2s.5-1.2 1.2-1.2c.6 0 1.1.6 1.1 1.2" class="st0"/>
    <path id="path2418" d="M105.3 768.6c0 .6-.5 1.2-1.1 1.2-.7 0-1.2-.6-1.2-1.2s.5-1.2 1.2-1.2c.6 0 1.1.6 1.1 1.2" class="st0"/>
    <path id="path2420" d="M88.7 778c0 1.7-1.3 3-2.9 3-1.6 0-2.9-1.3-2.9-3s1.3-3 2.9-3c1.6 0 2.9 1.3 2.9 3" class="st0"/>
    <path id="path2422" d="M98.4 768.4c0 2-1.7 3.7-3.6 3.7-1.9 0-3.6-1.7-3.6-3.7s1.7-3.7 3.6-3.7c2 0 3.6 1.7 3.6 3.7" class="st0"/>
    <path id="path2424" d="M108.4 778c0 2.4-1.9 4.4-4.3 4.4s-4.3-2-4.3-4.4 1.9-4.4 4.3-4.4 4.3 2 4.3 4.4" class="st0"/>
    <path id="path2426" d="M124.8 782.3h-1l-2.2-6.1-.4-1-.2-1.1-.4 1.1-.2.8-2.2 6.2h-1.1l3.2-9h1" class="st0"/>
    <path id="path2428" d="M130.5 776.7v1l-.1.6-.2.6-.4.5-.5.2-.5.2-.5.2h-.5l-.7-.1h-.4l-.2-.2-.6-.2-.4-.5-.4-.5-.2-.6-.1-.6-.1-.7.1-.7v-.5l.1-.2.2-.7.1-.1.2-.2.4-.5.5-.1.6-.2h.6l.6.1h.4l.2.2.5.2.5.5.4.5.2.5.1.5v.8zm-.7 0v-.6l-.2-.7-.1-.4-.2-.5-.4-.2-.2-.2-.5-.1h-1l-.4.1-.1.1-.1.1-.4.2-.2.5-.1.5-.1.6v1.2l.1.5.1.6.4.2.2.4.4.2.4.1.5.1.5-.1.4-.1.2-.1.1-.1.2-.2v-.1l.2-.4.1-.2.1-.2.1-.5" class="st0"/>
    <path id="path2430" fill="#fff" d="M132.3 773.3h.8v9.7h-.8v-9.7z"/>
    <path id="path2432" d="m140 773.3-2.8 3.6 2.6 3h-1.1l-2.5-3v6.1h-.8v-9.7h.8v3.6l2.6-3.6" class="st0"/>
    <path id="path2434" d="M145 775.2v.4l-.1.4-.2.2-.1.2-.2.1-.4.2-.6.1-.6.2-.2.1-.2.1-.2.1-.2.2v.8l.1.2.2.2.2.1.1.1.4.1h.4l.7-.1.6-.1.1.7-.7.1h-1.2l-.4-.1-.6-.2v-.1l-.2-.1-.4-.2-.1-.4-.1-.2v-.9l.1-.4.1-.4.2-.1.2-.1.2-.2.6-.2.7-.1.5-.2.1-.1.1-.1v-.1l.1-.2.1-.2-.1-.2-.1-.4-.1-.1-.1-.1-.2-.1-.2-.1-.4-.1h-1.1l-.5.1-.2.1v-.8l.6-.1h1.3l.5.1.4.2.5.2.2.4.2.2.2.5" class="st0"/>
    <path id="path2436" d="M155.7 779.9h-.8l-1.3-4.3-.2-.8-.1-.6-.6 1.6-1.3 4.2h-1l-1.3-4.3-.5-1.4-.4 1.4-1.2 4.3h-1l2-6.6h1l1.3 4.1.4 1.7.5-1.2 1.4-4.6h1" class="st0"/>
    <path id="path2438" d="M168.9 772.1v.5l-.1.4-.2.4-.2.2-.4.1-.2.2-.5.1H165l-.5.1-.1.2h-.1v.4l.1.1.1.2h2.1l.2.1.2.1.2.1.2.1.2.2v.1l.2.1.2.5.1.5v1l-.1.5v.7l-.2.4h1.2v.6h-2.2l-.5.1h-1.2l-.1-.1-.4-.1-.2-.1-.2-.1-.4-.2-.1-.2-.2-.2-.2-.4-.1-.5v-1.1l.2-.6.1-.2.1-.1.2-.2.2-.2-.2-.2-.2-.1-.2-.4v-.6l.1-.2.2-.2.2-.1-.1-.1-.2-.2-.5-.5-.1-.4-.1-.4v-.7l.2-.4v-.2l.1-.1.4-.4.4-.1.5-.1.5-.1.6-.1.7.1.6.1.6.2.5.2.5.4.1.4.2.2v.4l.1-.1zm-1.2 5.5-.1-.5-.1-.2-.1-.4-.2-.4-.2-.1-.4-.1-.4-.1h-.9l-.3.2-.4.1-.2.1-.2.4-.1.2-.1.4-.1.5.1.2.1.5.1.2.2.2.2.2.4.2.4.1h.9l.2-.1.4-.2.2-.2.2-.2.1-.2.1-.4.2-.4zm.3-5.6-.1-.2-.1-.4-.1-.2-.2-.2-.4-.1-.5-.2h-.4l-.5-.1-.8.1-.5.1-.1.2h-.3l-.1.2-.1.2v.6l.1.1.1.5.1.1.2.1.4.4h2.2l.2-.1.4-.1.2-.1.1-.2.1-.1.1-.2" class="st0"/>
    <path id="path2440" d="M175.2 777.4v.5l-.1.5-.1.5-.2.4-.4.4-.5.2-.1.1-.4.1h-1l-.2-.1-.5-.1-.4-.2-.2-.1-.4-.4-.2-.4-.1-.1v-.4l-.1-.4-.2-.6v-1.4l.1-.5.1-.2.1-.4v-.4l.1-.1.2-.2.4-.5.6-.1.2-.1.4-.1h1.2l.6.1.5.1.5.1-.1.8-.5-.2-.4-.1-.5-.1h-1.1l-.5.1-.4.2-.1.1h-.2l-.1.2-.1.2v.2l-.1.1v.7l-.1.7h4.3v.9zm-.8-.1H171l.1.5v.4l.2.4.2.2.1.4.4.1.4.2h.6l.4-.2.4-.2v-.1l.2-.1.1-.2.2-.4v-.4" class="st0"/>
    <path id="path2442" d="M182.2 773.3v5.1l-.1.4-.1.4-.2.4-.1.2-.5.2-.4.1h-1l-.4-.1-.4-.1-.2-.2-.4-.1-.1-.4-.2-.4-.2-.4v.4l.1.5v.7h-.8v-6.6h.8v3.7l.1.6.2.5.2.5.4.2.2.4.2.1h.2l.4.1.4-.1h.4l.2-.2.1-.2.1-.2.1-.2v-5.3" class="st0"/>
    <path id="path2444" d="M105.3 758.9c0 .6-.5 1.2-1.1 1.2-.7 0-1.2-.6-1.2-1.2s.5-1.2 1.2-1.2c.6 0 1.1.6 1.1 1.2" class="st0"/>
    <path id="path2446" d="M161.2 773.3h-.7v1.4-.4l-.1-.1-.5-.6-.2-.1-.2-.1-.6-.2h-1l-.4.1-.4.1-.2.1-.2.2-.1.4v.2l-.1.4.1.5.1.6.1.2.2.1.4.5.4.1.1.1.5.1.2.1.5.1h.2l1 .1h.2v.4l-.1.2v.5l-.1.1-.3.6-.2.1-.1.2h-.5l-.2.1-.5-.1-.6-.1-.5-.1-.5-.4-.1.7.5.2.6.2.6.1h1.2l.4-.1.5-.2.2-.2.2-.4.1-.4v-.4l.1-.5v-4.4zm-.7 3-.1-.4-.1-.5-.2-.4-.2-.5-.2-.2-.1-.1-.2-.1-.4-.2h-1l-.2.2-.2.2-.1.2v.6l.1.2.2.4.2.2.5.2.5.2.7.1h1" class="st0"/>
    <path id="path2448" d="m189.5 776.1-.1.5-.1.4-.2.4-.1.4-.4.2-.2.2-.6.4-.7.2-.6.4-.2.1-.2.2-.1.1v.7l.2.2.1.1.2.2.2.1h1.4l.7-.2.1 1.6-.8.1h-1.5l-.2-.1-.4-.1-.2-.1-.4-.1-.4-.2-.5-.5-.2-.4-.1-.6-.1-.6v-.5l.2-.5.1-.2.2-.4.2-.2.2-.2.7-.4.7-.2.6-.2.2-.2.1-.2.2-.2v-.6l-.1-.2-.2-.1-.1-.1-.2-.2h-.2l-.6-.1h-.5l-.5.1-.5.1-.4.1-.1-1.6.4-.1.5-.1h1.7l.7.2.6.1.2.2.2.1.4.5.2.5.2.6v.4" class="st0"/>
    <path id="path2450" d="M194.3 773.3v1.3h-.3l-.4-.1-.5.1v.1l-.1.1-.1.1-.1.2v3.4h1.6v1.3h-1.6v2.5l-1.7-.5v-2H190v-1.3h1.1v-4.2l.1-.1.1-.4.2-.4.2-.1.2-.1.4-.1h1.3" class="st0"/>
    <path id="path2452" d="M197.6 781.8v.1l-.1.2-.1.2-.1.1-.1.1-.1.1h-.9l-.4-.2-.1-.4-.1-.4v-.2l.1-.2v-.1l.1-.1.4-.2.4-.1.5.1.1.1.1.1.1.1.1.1.1.6zm-.3-8.5v6.6h-1.6v-6.6" class="st0"/>
    <path id="path2454" d="m203.1 783-.5.1h-.5l-.6-.1-.5-.1-.6-.1-.2-.4-.4-.4-.1-.5-.1-.5v-1.2h-1.2v-1.3h1.2v-5.3h1.6v5.3h1.6v1.3h-1.6v.5l.1.7.1.4.2.1.1.1h.2l.2.1.4-.1.5-.1" class="st0"/>
    <path id="path2456" d="M207 773.3v1.3h-.5l-.4-.1-.5.1v.1l-.1.1-.1.1v.2l-.1.5v2.9h1.7v1.3h-1.7v2.5l-1.7-.5v-2h-1.1v-1.3h1.1v-4l.1-.2v-.1l.1-.4.2-.4.2-.1.4-.1.4-.1h1.2" class="st0"/>
    <path id="path2458" d="M213.9 773.3v6.6h-1.7v-3.6l-.1-.4-.1-.5-.2-.2-.1-.2-.2-.2-.2-.1-.4-.1h-.2l-.1.1-.2.2-.2.4v4.7h-1.6v-5.6l.1-.4.2-.4.2-.1.4-.2.4-.1h1.3l.2.2.4.1.1.1.4.2.2.4.1.1v-.6l-.1-.5" class="st0"/>
    <path id="path2460" d="M221.2 773.3v5.1l-.1.4v.5l-.2.2-.2.2-.4.2-.5.1h-1.3l-.2-.2-.4-.1-.2-.2-.2-.1-.2-.4-.1-.2v.7l.1.5h-1.6v-6.6h1.6v3.1l.1.5.1.4.1.5.1.2.2.2.2.2.2.1h.7l.2-.2.2-.4v-4.7" class="st0"/>
    <path id="path2462" d="M228.9 772.6v.4l-.1.5-.2.2-.1.4-.5.2-.2.1h-2l-.6.1h-.3l-.1.1-.1.2.1.4h1.4l.6.2.5.1.4.4.4.4.2.4.1.5v1l-.1.2-.2.1h1v1.3h-2.2l-.6.1H225l-.4-.1h-.4l-.5-.4-.4-.2-.1-.2-.2-.1-.1-.2v-.2l-.2-.5v-.5l.1-.6.1-.6.1-.2.1-.1.2-.1.2-.2-.4-.1-.2-.2.1-.4v-.8l.1-.2.1-.4h.4l-.5-.4-.1-.2-.1-.1-.1-.2-.1-.2-.1-.5.1-.5.1-.4.1-.1.1-.2.4-.4.4-.1.5-.1.6-.1h1.3l.4.1.4.1.6.1.5.4.5.4v.2l.2.2.1.2.1.2v.6zm-2.1 5v-.2l-.1-.4-.1-.1-.1-.1-.1-.1-.2-.1-.5-.1h-.4l-.2.1-.1.1-.2.1-.2.1-.1.2v.8l.1.2.2.1.2.1.1.1h.2l.4.1.2-.1h.2l.2-.1h.1l.2-.5.1-.2zm.4-5.2v-.4l-.1-.1v-.1l-.2-.2-.2-.1-.2-.1-.4-.1h-.8l-.2.1-.5.2-.1.1-.1.2-.1.2.1.4v.2l.2.2.2.2h1.4l.5-.1.4-.2v-.1h.1v-.2" class="st0"/>
    <path id="path2464" d="M77.7 787.6c0 .6-.6 1.2-1.2 1.2-.7 0-1.3-.6-1.3-1.2s.6-1.2 1.3-1.2c.6 0 1.2.6 1.2 1.2" class="st0"/>
    <path id="path2466" d="M86.8 787.6c0 .6-.6 1.2-1.2 1.2s-1.2-.6-1.2-1.2.6-1.2 1.2-1.2 1.2.6 1.2 1.2" class="st0"/>
    <path id="path2468" d="M96 787.6c0 .6-.5 1.2-1.1 1.2-.7 0-1.2-.6-1.2-1.2s.5-1.2 1.2-1.2 1.1.6 1.1 1.2" class="st0"/>
    <path id="path2470" d="M77.7 778c0 .6-.6 1.2-1.2 1.2-.7 0-1.3-.6-1.3-1.2s.6-1.2 1.3-1.2c.6 0 1.2.6 1.2 1.2" class="st0"/>
    <path id="path2472" d="M96 778c0 .6-.5 1.2-1.1 1.2-.7 0-1.2-.6-1.2-1.2s.5-1.2 1.2-1.2 1.1.6 1.1 1.2" class="st0"/>
    <path id="path2474" d="M86.8 768.6c0 .6-.6 1.2-1.2 1.2s-1.2-.6-1.2-1.2.6-1.2 1.2-1.2 1.2.6 1.2 1.2" class="st0"/>
    <path id="path2476" d="M77.7 758.9c0 .6-.6 1.2-1.2 1.2-.7 0-1.3-.6-1.3-1.2s.6-1.2 1.3-1.2c.6 0 1.2.6 1.2 1.2" class="st0"/>
    <path id="path2478" d="M86.8 758.9c0 .6-.6 1.2-1.2 1.2s-1.2-.6-1.2-1.2.6-1.2 1.2-1.2 1.2.6 1.2 1.2" class="st0"/>
    <path id="path2480" d="M96 758.9c0 .6-.5 1.2-1.1 1.2-.7 0-1.2-.6-1.2-1.2s.5-1.2 1.2-1.2 1.1.6 1.1 1.2" class="st0"/>
  </g>
</svg>
